<svg width="75" height="75" viewBox="0 0 75 75" fill="none" xmlns="http://www.w3.org/2000/svg">
<path d="M2 36.5136V72.9997M2 36.5136L22.7083 51.3052M2 36.5136L11.8611 27.6386M2 72.9997H73M2 72.9997L22.7083 51.3052M73 72.9997V36.5136M73 72.9997L51.3056 51.3052M73 36.5136L61.1667 44.5817M73 36.5136L61.1667 27.6386M51.3056 51.3052L36.5139 36.5136L22.7083 51.3052M51.3056 51.3052L61.1667 44.5817M61.1667 13.833V27.6386M61.1667 44.5817V27.6386" stroke="#FAAC33" stroke-width="3" stroke-linecap="round"/>
<path d="M13 2V43.4167" stroke="#FAAC33" stroke-width="3" stroke-linecap="round"/>
<path d="M13 2H52.4444" stroke="#FAAC33" stroke-width="3" stroke-linecap="round"/>
<path d="M19.75 13.8333L35.5278 27.6389L63.1389 2" stroke="#FAAC33" stroke-width="3" stroke-linecap="round"/>
</svg>
